<?xml version="1.0" encoding="UTF-8"?>
<!DOCTYPE svg PUBLIC "-//W3C//DTD SVG 1.1//EN" "http://www.w3.org/Graphics/SVG/1.1/DTD/svg11.dtd">
<!-- Creator: CorelDRAW X7 -->
<svg xmlns="http://www.w3.org/2000/svg" xml:space="preserve" width="42.7058mm" height="12.2473mm" version="1.1" style="shape-rendering:geometricPrecision; text-rendering:geometricPrecision; image-rendering:optimizeQuality; fill-rule:evenodd; clip-rule:evenodd"
viewBox="0 0 1084 311"
 xmlns:xlink="http://www.w3.org/1999/xlink">
 <defs>
  <style type="text/css">
   <![CDATA[
    .str2 {stroke:#4D4D4D;stroke-width:4.51257}
    .str3 {stroke:white;stroke-width:4.51257}
    .str0 {stroke:white;stroke-width:1.93396}
    .str1 {stroke:#F08319;stroke-width:4.51257;stroke-dasharray:4.512568 4.512568}
    .fil3 {fill:none}
    .fil6 {fill:#4D4D4D}
    .fil7 {fill:#036572;fill-rule:nonzero}
    .fil9 {fill:#333333;fill-rule:nonzero}
    .fil8 {fill:#4D4D4D;fill-rule:nonzero}
    .fil11 {fill:#A6F5C4;fill-rule:nonzero}
    .fil10 {fill:white;fill-rule:nonzero}
    .fil0 {fill:#9BB291;fill-opacity:0.349020}
    .fil2 {fill:url(#id10)}
    .fil5 {fill:url(#id11)}
    .fil4 {fill:url(#id12)}
    .fil1 {fill:url(#id13)}
   ]]>
  </style>
    <clipPath id="id0">
     <path d="M197 241c-122,48 -199,-129 -102,-182 3,-1 6,-3 8,-5 -20,11 -37,24 -51,48 -55,92 23,201 135,196 29,-2 38,-9 49,-10 -1,1 -2,2 -3,3 6,-4 11,-8 17,-11 10,-9 8,-8 8,-24 0,-69 4,-59 -39,-60 -31,0 -20,18 -22,45zm-72 -197c8,-3 15,-4 22,-5l0 0c-8,1 -15,3 -22,5zm33 -44c-1,0 -2,0 -4,0l0 0c2,0 3,0 4,0zm-55 10c-11,4 -22,9 -32,16 10,-7 21,-12 32,-16zm44 301c14,0 27,-1 40,-3 -13,2 -27,3 -40,3z"/>
    </clipPath>
    <clipPath id="id1">
     <path d="M236 288c-11,1 -20,8 -49,10 -112,5 -190,-104 -135,-196 17,-28 37,-41 63,-53 10,-5 21,-9 32,-10 8,7 7,7 12,11 22,19 35,4 66,32 1,2 10,6 10,2 -1,-30 -25,-24 -35,-36 0,1 -5,-5 2,-5 42,1 64,31 74,58 3,8 13,9 18,7 7,-4 -8,-31 -16,-43 -28,-45 -76,-66 -124,-65 -41,1 -83,19 -113,51 -90,99 -21,247 98,259 31,3 76,-4 97,-22z"/>
    </clipPath>
    <clipPath id="id2">
     <path d="M223 111c-20,4 -27,21 -23,36 5,-4 12,-6 17,-1 6,7 1,16 -5,20 7,4 15,6 24,4 14,-3 26,-17 23,-36 -3,-15 -18,-27 -36,-23z"/>
    </clipPath>
    <clipPath id="id3">
     <path d="M147 204c14,-1 10,-12 16,-18 8,-9 15,9 28,-10 2,-3 6,-5 8,-5 3,-1 6,0 11,-3 5,-3 15,-14 7,-22 -7,-8 -19,1 -22,5 -3,4 -3,9 -6,12 -5,6 2,5 -3,12 -9,12 -18,-1 -25,9 -6,8 -2,15 -14,20z"/>
    </clipPath>
    <clipPath id="id4">
     <path d="M144 1c0,27 -5,17 0,38l0 -38z"/>
    </clipPath>
    <clipPath id="id5">
     <path d="M197 241c-122,48 -199,-129 -102,-182 3,-1 6,-3 8,-5 -20,11 -37,24 -51,48 -55,92 23,201 135,196 29,-2 38,-9 49,-10 -1,1 -2,2 -3,3 6,-4 11,-8 17,-11 10,-9 8,-8 8,-24 0,-69 4,-59 -39,-60 -31,0 -20,18 -22,45zm-72 -197c8,-3 15,-4 22,-5l0 0c-8,1 -15,3 -22,5zm33 -44c-1,0 -2,0 -4,0l0 0c2,0 3,0 4,0zm-55 10c-11,4 -22,9 -32,16 10,-7 21,-12 32,-16zm44 301c14,0 27,-1 40,-3 -13,2 -27,3 -40,3z"/>
    </clipPath>
    <clipPath id="id6">
     <path d="M236 288c-11,1 -20,8 -49,10 -112,5 -190,-104 -135,-196 17,-28 37,-41 63,-53 10,-5 21,-9 32,-10 8,7 7,7 12,11 22,19 35,4 66,32 1,2 10,6 10,2 -1,-30 -25,-24 -35,-36 0,1 -5,-5 2,-5 42,1 64,31 74,58 3,8 13,9 18,7 7,-4 -8,-31 -16,-43 -28,-45 -76,-66 -124,-65 -41,1 -83,19 -113,51 -90,99 -21,247 98,259 31,3 76,-4 97,-22z"/>
    </clipPath>
    <clipPath id="id7">
     <path d="M223 111c-20,4 -27,21 -23,36 5,-4 12,-6 17,-1 6,7 1,16 -5,20 7,4 15,6 24,4 14,-3 26,-17 23,-36 -3,-15 -18,-27 -36,-23z"/>
    </clipPath>
    <clipPath id="id8">
     <path d="M147 204c14,-1 10,-12 16,-18 8,-9 15,9 28,-10 2,-3 6,-5 8,-5 3,-1 6,0 11,-3 5,-3 15,-14 7,-22 -7,-8 -19,1 -22,5 -3,4 -3,9 -6,12 -5,6 2,5 -3,12 -9,12 -18,-1 -25,9 -6,8 -2,15 -14,20z"/>
    </clipPath>
    <clipPath id="id9">
     <path d="M144 1c0,27 -5,17 0,38l0 -38z"/>
    </clipPath>
  <linearGradient id="id10" gradientUnits="objectBoundingBox" x1="21.4711%" y1="63.5701%" x2="78.5289%" y2="36.4299%">
   <stop offset="0" style="stop-opacity:1; stop-color:#FECC00"/>
   <stop offset="0.290196" style="stop-opacity:1; stop-color:#F7A60D"/>
   <stop offset="1" style="stop-opacity:1; stop-color:#EF7F1A"/>
  </linearGradient>
  <linearGradient id="id11" gradientUnits="objectBoundingBox" xlink:href="#id10" x1="33.1483%" y1="84.864%" x2="66.8558%" y2="15.136%">
  </linearGradient>
  <linearGradient id="id12" gradientUnits="objectBoundingBox" xlink:href="#id10" x1="82.1711%" y1="27.3737%" x2="17.8297%" y2="72.6263%">
  </linearGradient>
  <linearGradient id="id13" gradientUnits="objectBoundingBox" xlink:href="#id10" x1="27.0297%" y1="80.0142%" x2="72.9703%" y2="19.9858%">
  </linearGradient>
 </defs>
 <g id="Layer_x0020_1">
  <metadata id="CorelCorpID_0Corel-Layer"/>
  <g id="_2702450000464">
   <path class="fil0" d="M106 79c-4,3 -6,-4 -14,2 -15,12 -15,18 -22,27 -7,9 -1,11 0,13 1,3 0,3 1,6 1,4 2,6 6,6 0,-4 -3,-4 -4,-11l7 11c2,8 -1,7 10,9 3,0 1,0 3,1l5 3c3,2 2,2 5,4 3,2 4,1 7,2 2,10 0,3 -3,9 -3,7 1,10 3,13 2,2 2,3 4,5l6 4c0,14 1,10 2,20 0,2 3,15 5,19 2,4 4,6 11,5 -1,-3 -2,-2 -3,-4 -2,-6 2,0 -2,-6 -3,-5 1,1 0,-6 0,0 -1,-1 -1,-1 7,-1 7,-3 10,-7 7,-9 3,-2 5,-14 5,-2 8,2 9,-6 2,-11 1,-6 5,-13 0,-3 -2,-1 -4,-5 -1,0 -1,-1 -1,-2 -17,0 -13,-2 -14,-6 -4,-9 -6,2 -11,-9 -4,0 -4,1 -7,0 -3,-1 0,-1 -7,-3 -7,5 -3,6 -12,4 0,-7 0,-5 -2,-8 0,0 -1,-1 -1,-1l-1 -4c0,-1 0,-1 -1,-1 -7,5 -5,4 -9,3 -5,-1 -1,-16 14,-13 3,0 1,2 5,4 2,-4 0,-5 5,-8 5,-4 2,-3 6,-7 2,-4 4,-4 7,-6 5,-4 3,-4 8,-5 -1,-3 -1,1 -2,-3 6,-1 2,3 10,-1 -1,3 -2,3 -1,5l5 1c-1,-4 -1,-2 -4,-4 5,-3 2,0 4,-4 -3,-5 -4,2 -4,-7 -12,4 -1,0 -8,-3 -6,-3 -6,3 -6,7 -8,2 -3,2 -8,5 -1,-3 1,-2 -2,-4 -2,-2 -2,0 -5,-3 0,-4 1,-4 5,-6 7,-3 4,-1 8,0 3,-3 0,-2 4,-5 2,-1 3,-1 5,-1l4 1 -5 4c5,1 5,2 9,0 0,0 1,0 1,0 0,0 0,-1 1,-1 1,0 2,0 3,-1 -1,-3 0,0 -2,-3 -3,-6 -12,-8 -17,-2 -2,2 0,1 -2,2 0,0 0,-1 0,0 0,0 -1,-1 -1,-1l2 -4c-9,0 -7,0 -6,4 -5,2 -3,2 -10,3 1,-3 0,-1 4,-4 2,-2 2,-1 3,-3 -3,1 -2,2 -5,2 -6,0 0,-5 -9,-3 -7,1 -1,2 -1,5z"/>
   <path class="fil0" d="M169 133c2,6 2,0 2,4 0,2 -1,3 -1,6 0,3 4,8 6,10 3,3 6,2 11,1 10,-2 4,1 14,1 -1,6 -1,8 2,12 4,8 3,4 1,11 -1,5 0,1 2,12l3 8c0,1 0,1 0,1 0,1 1,1 1,1 0,0 0,1 0,1 0,0 0,1 0,1 7,-4 15,-23 18,-33 5,-17 3,-29 0,-45 -12,0 -9,-5 -16,-2 -3,2 -2,1 -10,-1l-1 -4c0,0 -1,-1 -1,-1 -3,0 -18,3 -19,4 -5,3 0,2 -5,7 -1,2 -5,4 -7,6z"/>
   <path class="fil0" d="M196 89c3,6 5,2 7,6 0,0 -1,0 -1,1l-3 0c-9,3 -1,4 -11,6l1 6c-4,0 -5,-1 -9,2l1 6c12,3 8,-4 16,-7 4,-2 9,3 9,4 1,5 0,-2 -2,2 3,1 3,1 5,0 0,-10 -5,0 -5,-9 7,0 7,5 10,10 2,-2 1,-2 3,-5 4,3 0,5 7,6 0,-7 0,1 -3,-7l-8 -14c-4,-4 0,-1 -3,-1 -2,1 -1,1 -5,1 1,-5 8,-4 -3,-12 -4,3 -4,1 -6,5z"/>
   <path class="fil0" d="M181 99l5 0c2,2 -1,0 2,1 2,1 3,0 5,0l-3 -5c-2,-4 0,-2 -3,-4l-3 3c-3,3 -3,1 -3,5z"/>
   <path class="fil0" d="M109 103l0 3c0,2 -1,0 -1,4 5,-1 3,-2 6,-5 0,0 0,0 0,1 0,0 1,1 1,1 1,2 0,1 2,1 1,-3 1,1 0,-4 -3,-2 -3,-2 -8,-1z"/>
   <path class="fil1" d="M197 241c-122,48 -199,-129 -102,-182 3,-1 6,-3 8,-5 -20,11 -37,24 -51,48 -55,92 23,201 135,196 29,-2 38,-9 49,-10 -1,1 -2,2 -3,3 6,-4 11,-8 17,-11 10,-9 8,-8 8,-24 0,-69 4,-59 -39,-60 -31,0 -20,18 -22,45zm-72 -197c8,-3 15,-4 22,-5l0 0c-8,1 -15,3 -22,5zm33 -44c-1,0 -2,0 -4,0l0 0c2,0 3,0 4,0zm-55 10c-11,4 -22,9 -32,16 10,-7 21,-12 32,-16zm44 301c14,0 27,-1 40,-3 -13,2 -27,3 -40,3z"/>
   <g style="clip-path:url(#id0)">
    <g>
     <path id="1" class="fil2" d="M230 78c5,3 8,8 5,10 -2,3 -9,2 -14,-1 -5,-3 -8,-7 -5,-10 3,-2 9,-2 14,1z"/>
    </g>
   </g>
   <path class="fil3" d="M197 241c-122,48 -199,-129 -102,-182 3,-1 6,-3 8,-5 -20,11 -37,24 -51,48 -55,92 23,201 135,196 29,-2 38,-9 49,-10 -1,1 -2,2 -3,3 6,-4 11,-8 17,-11 10,-9 8,-8 8,-24 0,-69 4,-59 -39,-60 -31,0 -20,18 -22,45zm-72 -197c8,-3 15,-4 22,-5l0 0c-8,1 -15,3 -22,5zm33 -44c-1,0 -2,0 -4,0l0 0c2,0 3,0 4,0zm-55 10c-11,4 -22,9 -32,16 10,-7 21,-12 32,-16zm44 301c14,0 27,-1 40,-3 -13,2 -27,3 -40,3z"/>
   <path class="fil4" d="M236 288c-11,1 -20,8 -49,10 -112,5 -190,-104 -135,-196 17,-28 37,-41 63,-53 10,-5 21,-9 32,-10 8,7 7,7 12,11 22,19 35,4 66,32 1,2 10,6 10,2 -1,-30 -25,-24 -35,-36 0,1 -5,-5 2,-5 42,1 64,31 74,58 3,8 13,9 18,7 7,-4 -8,-31 -16,-43 -28,-45 -76,-66 -124,-65 -41,1 -83,19 -113,51 -90,99 -21,247 98,259 31,3 76,-4 97,-22z"/>
   <g style="clip-path:url(#id1)">
    <g>
     <path id="1" class="fil2" d="M230 78c5,3 8,8 5,10 -2,3 -9,2 -14,-1 -5,-3 -8,-7 -5,-10 3,-2 9,-2 14,1z"/>
    </g>
   </g>
   <path class="fil3" d="M236 288c-11,1 -20,8 -49,10 -112,5 -190,-104 -135,-196 17,-28 37,-41 63,-53 10,-5 21,-9 32,-10 8,7 7,7 12,11 22,19 35,4 66,32 1,2 10,6 10,2 -1,-30 -25,-24 -35,-36 0,1 -5,-5 2,-5 42,1 64,31 74,58 3,8 13,9 18,7 7,-4 -8,-31 -16,-43 -28,-45 -76,-66 -124,-65 -41,1 -83,19 -113,51 -90,99 -21,247 98,259 31,3 76,-4 97,-22z"/>
   <path class="fil5" d="M223 111c-20,4 -27,21 -23,36 5,-4 12,-6 17,-1 6,7 1,16 -5,20 7,4 15,6 24,4 14,-3 26,-17 23,-36 -3,-15 -18,-27 -36,-23z"/>
   <g style="clip-path:url(#id2)">
    <g>
     <path id="1" class="fil2" d="M230 78c5,3 8,8 5,10 -2,3 -9,2 -14,-1 -5,-3 -8,-7 -5,-10 3,-2 9,-2 14,1z"/>
    </g>
   </g>
   <path class="fil3" d="M223 111c-20,4 -27,21 -23,36 5,-4 12,-6 17,-1 6,7 1,16 -5,20 7,4 15,6 24,4 14,-3 26,-17 23,-36 -3,-15 -18,-27 -36,-23z"/>
   <path class="fil6" d="M147 204c14,-1 10,-12 16,-18 8,-9 15,9 28,-10 2,-3 6,-5 8,-5 3,-1 6,0 11,-3 5,-3 15,-14 7,-22 -7,-8 -19,1 -22,5 -3,4 -3,9 -6,12 -5,6 2,5 -3,12 -9,12 -18,-1 -25,9 -6,8 -2,15 -14,20z"/>
   <g style="clip-path:url(#id3)">
    <g>
     <path id="1" class="fil2" d="M230 78c5,3 8,8 5,10 -2,3 -9,2 -14,-1 -5,-3 -8,-7 -5,-10 3,-2 9,-2 14,1z"/>
    </g>
   </g>
   <path class="fil3 str0" d="M147 204c14,-1 10,-12 16,-18 8,-9 15,9 28,-10 2,-3 6,-5 8,-5 3,-1 6,0 11,-3 5,-3 15,-14 7,-22 -7,-8 -19,1 -22,5 -3,4 -3,9 -6,12 -5,6 2,5 -3,12 -9,12 -18,-1 -25,9 -6,8 -2,15 -14,20z"/>
   <g style="clip-path:url(#id4)">
    <g>
     <path class="fil2" d="M230 78c5,3 8,8 5,10 -2,3 -9,2 -14,-1 -5,-3 -8,-7 -5,-10 3,-2 9,-2 14,1z"/>
    </g>
   </g>
   <path class="fil3 str1" d="M144 1c0,27 -5,17 0,38"/>
   <path class="fil7" d="M460 127c-4,-3 -8,-6 -13,-7 -4,-2 -9,-3 -14,-3 -5,0 -9,1 -13,2 -4,2 -8,4 -11,7 -3,3 -5,7 -7,11 -1,4 -2,8 -2,13 0,7 1,13 4,18 4,5 8,9 13,12 6,3 12,4 18,4 3,0 6,0 9,-1 4,-1 6,-2 7,-3l0 -17 -11 0 -10 -24 49 0 0 59c-2,1 -5,3 -9,5 -4,1 -8,2 -12,3 -4,1 -8,2 -13,3 -5,0 -9,1 -13,1 -11,0 -21,-3 -30,-8 -9,-6 -17,-13 -22,-22 -5,-9 -8,-19 -8,-30 0,-10 3,-20 8,-30 5,-9 13,-16 22,-21 9,-5 19,-8 30,-8 5,0 11,1 16,2 5,1 10,3 15,5 5,3 9,6 13,9l-16 20zm23 -34l26 0 0 113 -26 1 0 -114zm77 116c-8,0 -16,-2 -23,-6 -8,-3 -13,-9 -18,-15 -4,-7 -6,-15 -6,-23 0,-6 1,-12 4,-17 2,-6 6,-10 10,-14 4,-4 9,-7 15,-10 6,-2 12,-3 18,-3 6,0 12,1 18,3 5,2 10,6 15,10 4,4 8,8 10,14 3,5 4,11 4,17 0,6 -1,12 -4,18 -2,5 -6,10 -10,14 -5,4 -10,7 -15,9 -6,2 -12,3 -18,3zm-22 -44c0,6 3,11 7,15 4,4 9,6 15,6 6,0 11,-2 15,-6 4,-4 6,-9 6,-15 0,-4 -1,-7 -3,-10 -2,-3 -4,-6 -8,-8 -3,-2 -6,-3 -10,-3 -4,0 -7,1 -11,3 -3,2 -6,5 -8,8 -2,3 -3,6 -3,10zm98 0c0,6 2,11 7,15 4,4 9,6 15,6 5,0 10,-2 15,-6 4,-4 6,-9 6,-15 0,-4 -1,-7 -3,-10 -2,-3 -4,-6 -8,-8 -3,-1 -7,-2 -10,-2 -4,0 -8,1 -11,2 -3,2 -6,5 -8,8 -2,3 -3,6 -3,10zm-25 -72l25 -1 0 34 2 -1 2 0c6,-2 12,-4 18,-4 6,0 12,2 17,4 6,2 11,5 16,9 4,4 7,8 10,14 2,5 4,11 4,17 0,7 -2,12 -4,18 -3,5 -6,10 -10,14 -5,4 -10,7 -16,9 -5,2 -11,3 -17,3 -9,0 -16,-2 -23,-6 -8,-3 -13,-9 -18,-15 -4,-7 -6,-14 -6,-22l0 -73zm126 62c2,-3 5,-6 8,-8 3,-2 7,-2 11,-2 3,0 7,0 10,2 3,2 6,5 8,8 2,3 3,6 3,10 0,6 -2,11 -6,15 -5,4 -10,6 -15,6 -6,0 -11,-2 -15,-6 -5,-4 -7,-9 -7,-15 0,-4 1,-7 3,-10zm40 52l25 0 0 -42c0,-6 -1,-12 -3,-17 -3,-6 -6,-10 -11,-14 -4,-4 -9,-7 -15,-9 -6,-3 -11,-4 -17,-4 -7,0 -13,1 -18,4 -6,2 -11,5 -15,9 -5,4 -8,8 -11,14 -2,5 -3,11 -3,17 0,8 2,16 6,23 4,6 10,11 17,15 8,4 15,6 24,6 6,0 12,-1 17,-3 1,-1 2,-1 4,-2l0 3zm29 -114l26 0 0 113 -26 1 0 -114z"/>
   <path class="fil7" d="M869 93l28 0 0 114 -28 -1 0 -113zm57 0l-25 0 55 116 55 -116 -25 0 -30 59 -30 -59zm89 113l0 -113 69 0 0 24 -41 0 0 20 22 0 7 24 -29 0 0 45 -28 0z"/>
   <path class="fil8" d="M398 40c0,0 1,-1 1,-1l10 0c9,0 13,4 13,11 0,4 -1,6 -3,8 -2,2 -6,3 -10,3l-3 0c0,0 0,0 0,0l0 7c0,0 -1,1 -1,1l-6 0c0,0 -1,-1 -1,-1l0 -28zm11 14c4,0 6,-1 6,-4 0,-1 -1,-2 -2,-3 -1,-1 -2,-1 -4,-1l-3 0c0,0 0,0 0,1l0 6c0,1 0,1 0,1l3 0zm18 -14c0,0 0,-1 1,-1l10 0c9,0 13,4 13,10 0,4 -2,7 -5,9l6 9c0,1 0,1 0,1 0,1 0,1 -1,1l-5 0c-1,0 -2,-1 -3,-1l-4 -8c-1,-1 -1,-1 -1,-1l-3 0c-1,0 -1,0 -1,0 0,0 0,1 0,1l0 8c0,0 0,1 -1,1l-5 0c-1,0 -1,-1 -1,-1l0 -28zm11 13c3,0 5,-1 5,-4 0,-1 0,-2 -1,-2 -1,-1 -2,-1 -4,-1l-3 0c-1,0 -1,0 -1,1l0 5c0,1 0,1 1,1l3 0zm28 -12c0,-1 1,-2 1,-2 0,0 1,0 1,0 1,0 2,0 2,2l13 26c1,1 1,1 1,1 0,1 -1,1 -1,1l-6 0c0,0 -1,0 -1,0 0,-1 0,-1 0,-1l-2 -4c0,0 0,0 -1,0l-10 0c-1,0 -1,0 -1,0l-2 4c0,0 0,0 0,1 -1,0 -1,0 -1,0l-6 0c0,0 -1,0 -1,-1 0,0 0,0 1,-1l13 -26zm4 17c1,0 1,0 1,-1 0,0 0,0 0,0l-3 -6 -3 6c0,0 0,0 0,0 0,1 0,1 1,1l4 0zm14 -17c-1,-1 -1,-1 -1,-1 0,-1 1,-1 1,-1l6 0c0,0 1,0 1,1 0,0 0,0 1,1l7 15 8 -15c0,-1 0,-1 0,-1 1,-1 1,-1 2,-1l5 0c0,0 1,0 1,1 0,0 0,0 -1,1l-13 26c0,1 -1,2 -1,2 0,0 -1,1 -1,1 0,0 -1,-1 -1,-1 0,0 0,-1 -1,-2l-13 -26zm34 -1c0,0 0,-1 1,-1l5 0c1,0 1,1 1,1l0 28c0,0 0,1 -1,1l-5 0c-1,0 -1,-1 -1,-1l0 -28z"/>
   <path class="fil9" d="M403 231l14 0c2,0 3,0 4,0 2,0 3,1 4,1 2,1 4,3 5,5 1,2 2,5 2,8 0,1 0,3 -1,4 0,2 -1,3 -1,4 -1,1 -2,2 -3,3 -1,1 -2,1 -3,2 -1,0 -2,0 -3,1 -1,0 -3,0 -4,0l-10 0 0 17 -4 0 0 -45zm14 24c1,0 2,0 3,0 1,0 1,-1 2,-1 1,0 2,-1 2,-1 1,-1 1,-1 2,-2 0,-1 1,-2 1,-3 0,-1 0,-2 0,-3 0,-3 0,-4 -1,-6 -1,-1 -2,-2 -3,-3 -1,-1 -3,-1 -6,-1l-10 0 0 20 10 0zm42 21c-4,0 -7,0 -10,-1 -2,-2 -5,-3 -7,-5 -2,-2 -4,-5 -5,-8 -1,-2 -2,-5 -2,-9 0,-3 1,-6 2,-9 1,-3 3,-5 5,-7 2,-2 5,-4 8,-5 2,-1 5,-2 9,-2 3,0 6,1 9,2 3,1 5,3 7,5 2,2 4,4 5,7 1,3 2,6 2,9 0,4 -1,7 -2,9 -1,3 -3,6 -5,8 -2,2 -4,4 -7,5 -3,1 -6,1 -9,1zm0 -4c2,0 5,0 7,-1 2,-1 4,-2 6,-4 2,-2 3,-4 4,-6 1,-2 1,-5 1,-8 0,-2 0,-5 -1,-7 -1,-3 -2,-5 -4,-6 -2,-2 -4,-3 -6,-4 -2,-1 -5,-2 -7,-2 -3,0 -6,1 -8,2 -2,1 -4,2 -6,4 -1,2 -3,4 -4,6 -1,2 -1,5 -1,7 0,3 0,5 1,8 1,2 3,4 4,6 2,1 4,3 6,4 2,1 5,1 8,1zm28 -41l4 0 0 41 21 0 0 4 -25 0 0 -45zm41 25l-16 -25 6 0 13 20 12 -20 6 0 -16 25 0 20 -5 0 0 -20zm45 20c-3,0 -6,0 -9,-1 -3,-2 -5,-3 -7,-5 -2,-2 -4,-5 -5,-8 -1,-3 -2,-5 -2,-9 0,-3 1,-6 2,-9 1,-2 3,-5 5,-7 2,-2 4,-4 7,-5 3,-1 6,-2 9,-2 4,0 7,1 9,2 3,1 6,3 8,5l-3 3c-2,-2 -4,-3 -6,-4 -2,-1 -5,-2 -8,-2 -2,0 -5,1 -7,2 -2,1 -4,2 -6,4 -2,2 -3,4 -4,6 -1,2 -1,5 -1,7 0,3 0,5 1,8 1,2 2,4 4,6 2,2 4,3 6,4 2,1 5,1 7,1 3,0 6,0 8,-1 2,-1 4,-2 6,-4l3 3c-3,2 -5,4 -8,5 -2,1 -5,1 -9,1zm21 -45l5 0 0 41 20 0 0 4 -25 0 0 -45zm29 0l4 0 0 45 -4 0 0 -45zm11 -2l33 36 0 -34 4 0 0 46 -33 -36 0 35 -4 0 0 -47zm44 2l4 0 0 45 -4 0 0 -45zm32 45c-3,0 -6,0 -9,-1 -3,-2 -6,-3 -8,-5 -2,-2 -3,-5 -4,-8 -2,-3 -2,-5 -2,-9 0,-3 0,-6 2,-9 1,-2 2,-5 5,-7 2,-2 4,-4 7,-5 3,-1 6,-2 9,-2 3,0 6,1 9,2 3,1 5,3 7,5l-3 3c-1,-2 -3,-3 -5,-4 -3,-1 -5,-2 -8,-2 -3,0 -5,1 -7,2 -3,1 -5,2 -6,4 -2,2 -3,4 -4,6 -1,2 -2,5 -2,7 0,3 1,5 2,8 1,2 2,4 4,6 1,2 3,3 6,4 2,1 4,1 7,1 3,0 5,0 8,-1 2,-1 4,-2 5,-4l3 3c-2,2 -4,4 -7,5 -3,1 -6,1 -9,1z"/>
   <line class="fil3 str2" x1="338" y1="33" x2="338" y2= "260" />
  </g>
  <g id="_2702450010224">
   <path class="fil0" d="M106 79c-4,3 -6,-4 -14,2 -15,12 -15,18 -22,27 -7,9 -1,11 0,13 1,3 0,3 1,6 1,4 2,6 6,6 0,-4 -3,-4 -4,-11l7 11c2,8 -1,7 10,9 3,0 1,0 3,1l5 3c3,2 2,2 5,4 3,2 4,1 7,2 2,10 0,3 -3,9 -3,7 1,10 3,13 2,2 2,3 4,5l6 4c0,14 1,10 2,20 0,2 3,15 5,19 2,4 4,6 11,5 -1,-3 -2,-2 -3,-4 -2,-6 2,0 -2,-6 -3,-5 1,1 0,-6 0,0 -1,-1 -1,-1 7,-1 7,-3 10,-7 7,-9 3,-2 5,-14 5,-2 8,2 9,-6 2,-11 1,-6 5,-13 0,-3 -2,-1 -4,-5 -1,0 -1,-1 -1,-2 -17,0 -13,-2 -14,-6 -4,-9 -6,2 -11,-9 -4,0 -4,1 -7,0 -3,-1 0,-1 -7,-3 -7,5 -3,6 -12,4 0,-7 0,-5 -2,-8 0,0 -1,-1 -1,-1l-1 -4c0,-1 0,-1 -1,-1 -7,5 -5,4 -9,3 -5,-1 -1,-16 14,-13 3,0 1,2 5,4 2,-4 0,-5 5,-8 5,-4 2,-3 6,-7 2,-4 4,-4 7,-6 5,-4 3,-4 8,-5 -1,-3 -1,1 -2,-3 6,-1 2,3 10,-1 -1,3 -2,3 -1,5l5 1c-1,-4 -1,-2 -4,-4 5,-3 2,0 4,-4 -3,-5 -4,2 -4,-7 -12,4 -1,0 -8,-3 -6,-3 -6,3 -6,7 -8,2 -3,2 -8,5 -1,-3 1,-2 -2,-4 -2,-2 -2,0 -5,-3 0,-4 1,-4 5,-6 7,-3 4,-1 8,0 3,-3 0,-2 4,-5 2,-1 3,-1 5,-1l4 1 -5 4c5,1 5,2 9,0 0,0 1,0 1,0 0,0 0,-1 1,-1 1,0 2,0 3,-1 -1,-3 0,0 -2,-3 -3,-6 -12,-8 -17,-2 -2,2 0,1 -2,2 0,0 0,-1 0,0 0,0 -1,-1 -1,-1l2 -4c-9,0 -7,0 -6,4 -5,2 -3,2 -10,3 1,-3 0,-1 4,-4 2,-2 2,-1 3,-3 -3,1 -2,2 -5,2 -6,0 0,-5 -9,-3 -7,1 -1,2 -1,5z"/>
   <path class="fil0" d="M169 133c2,6 2,0 2,4 0,2 -1,3 -1,6 0,3 4,8 6,10 3,3 6,2 11,1 10,-2 4,1 14,1 -1,6 -1,8 2,12 4,8 3,4 1,11 -1,5 0,1 2,12l3 8c0,1 0,1 0,1 0,1 1,1 1,1 0,0 0,1 0,1 0,0 0,1 0,1 7,-4 15,-23 18,-33 5,-17 3,-29 0,-45 -12,0 -9,-5 -16,-2 -3,2 -2,1 -10,-1l-1 -4c0,0 -1,-1 -1,-1 -3,0 -18,3 -19,4 -5,3 0,2 -5,7 -1,2 -5,4 -7,6z"/>
   <path class="fil0" d="M196 89c3,6 5,2 7,6 0,0 -1,0 -1,1l-3 0c-9,3 -1,4 -11,6l1 6c-4,0 -5,-1 -9,2l1 6c12,3 8,-4 16,-7 4,-2 9,3 9,4 1,5 0,-2 -2,2 3,1 3,1 5,0 0,-10 -5,0 -5,-9 7,0 7,5 10,10 2,-2 1,-2 3,-5 4,3 0,5 7,6 0,-7 0,1 -3,-7l-8 -14c-4,-4 0,-1 -3,-1 -2,1 -1,1 -5,1 1,-5 8,-4 -3,-12 -4,3 -4,1 -6,5z"/>
   <path class="fil0" d="M181 99l5 0c2,2 -1,0 2,1 2,1 3,0 5,0l-3 -5c-2,-4 0,-2 -3,-4l-3 3c-3,3 -3,1 -3,5z"/>
   <path class="fil0" d="M109 103l0 3c0,2 -1,0 -1,4 5,-1 3,-2 6,-5 0,0 0,0 0,1 0,0 1,1 1,1 1,2 0,1 2,1 1,-3 1,1 0,-4 -3,-2 -3,-2 -8,-1z"/>
   <path class="fil1" d="M197 241c-122,48 -199,-129 -102,-182 3,-1 6,-3 8,-5 -20,11 -37,24 -51,48 -55,92 23,201 135,196 29,-2 38,-9 49,-10 -1,1 -2,2 -3,3 6,-4 11,-8 17,-11 10,-9 8,-8 8,-24 0,-69 4,-59 -39,-60 -31,0 -20,18 -22,45zm-72 -197c8,-3 15,-4 22,-5l0 0c-8,1 -15,3 -22,5zm33 -44c-1,0 -2,0 -4,0l0 0c2,0 3,0 4,0zm-55 10c-11,4 -22,9 -32,16 10,-7 21,-12 32,-16zm44 301c14,0 27,-1 40,-3 -13,2 -27,3 -40,3z"/>
   <g style="clip-path:url(#id5)">
    <g>
     <path id="1" class="fil2" d="M230 78c5,3 8,8 5,10 -2,3 -9,2 -14,-1 -5,-3 -8,-7 -5,-10 3,-2 9,-2 14,1z"/>
    </g>
   </g>
   <path class="fil3" d="M197 241c-122,48 -199,-129 -102,-182 3,-1 6,-3 8,-5 -20,11 -37,24 -51,48 -55,92 23,201 135,196 29,-2 38,-9 49,-10 -1,1 -2,2 -3,3 6,-4 11,-8 17,-11 10,-9 8,-8 8,-24 0,-69 4,-59 -39,-60 -31,0 -20,18 -22,45zm-72 -197c8,-3 15,-4 22,-5l0 0c-8,1 -15,3 -22,5zm33 -44c-1,0 -2,0 -4,0l0 0c2,0 3,0 4,0zm-55 10c-11,4 -22,9 -32,16 10,-7 21,-12 32,-16zm44 301c14,0 27,-1 40,-3 -13,2 -27,3 -40,3z"/>
   <path class="fil4" d="M236 288c-11,1 -20,8 -49,10 -112,5 -190,-104 -135,-196 17,-28 37,-41 63,-53 10,-5 21,-9 32,-10 8,7 7,7 12,11 22,19 35,4 66,32 1,2 10,6 10,2 -1,-30 -25,-24 -35,-36 0,1 -5,-5 2,-5 42,1 64,31 74,58 3,8 13,9 18,7 7,-4 -8,-31 -16,-43 -28,-45 -76,-66 -124,-65 -41,1 -83,19 -113,51 -90,99 -21,247 98,259 31,3 76,-4 97,-22z"/>
   <g style="clip-path:url(#id6)">
    <g>
     <path id="1" class="fil2" d="M230 78c5,3 8,8 5,10 -2,3 -9,2 -14,-1 -5,-3 -8,-7 -5,-10 3,-2 9,-2 14,1z"/>
    </g>
   </g>
   <path class="fil3" d="M236 288c-11,1 -20,8 -49,10 -112,5 -190,-104 -135,-196 17,-28 37,-41 63,-53 10,-5 21,-9 32,-10 8,7 7,7 12,11 22,19 35,4 66,32 1,2 10,6 10,2 -1,-30 -25,-24 -35,-36 0,1 -5,-5 2,-5 42,1 64,31 74,58 3,8 13,9 18,7 7,-4 -8,-31 -16,-43 -28,-45 -76,-66 -124,-65 -41,1 -83,19 -113,51 -90,99 -21,247 98,259 31,3 76,-4 97,-22z"/>
   <path class="fil5" d="M223 111c-20,4 -27,21 -23,36 5,-4 12,-6 17,-1 6,7 1,16 -5,20 7,4 15,6 24,4 14,-3 26,-17 23,-36 -3,-15 -18,-27 -36,-23z"/>
   <g style="clip-path:url(#id7)">
    <g>
     <path id="1" class="fil2" d="M230 78c5,3 8,8 5,10 -2,3 -9,2 -14,-1 -5,-3 -8,-7 -5,-10 3,-2 9,-2 14,1z"/>
    </g>
   </g>
   <path class="fil3" d="M223 111c-20,4 -27,21 -23,36 5,-4 12,-6 17,-1 6,7 1,16 -5,20 7,4 15,6 24,4 14,-3 26,-17 23,-36 -3,-15 -18,-27 -36,-23z"/>
   <path class="fil6" d="M147 204c14,-1 10,-12 16,-18 8,-9 15,9 28,-10 2,-3 6,-5 8,-5 3,-1 6,0 11,-3 5,-3 15,-14 7,-22 -7,-8 -19,1 -22,5 -3,4 -3,9 -6,12 -5,6 2,5 -3,12 -9,12 -18,-1 -25,9 -6,8 -2,15 -14,20z"/>
   <g style="clip-path:url(#id8)">
    <g>
     <path id="1" class="fil2" d="M230 78c5,3 8,8 5,10 -2,3 -9,2 -14,-1 -5,-3 -8,-7 -5,-10 3,-2 9,-2 14,1z"/>
    </g>
   </g>
   <path class="fil3 str0" d="M147 204c14,-1 10,-12 16,-18 8,-9 15,9 28,-10 2,-3 6,-5 8,-5 3,-1 6,0 11,-3 5,-3 15,-14 7,-22 -7,-8 -19,1 -22,5 -3,4 -3,9 -6,12 -5,6 2,5 -3,12 -9,12 -18,-1 -25,9 -6,8 -2,15 -14,20z"/>
   <g style="clip-path:url(#id9)">
    <g>
     <path class="fil2" d="M230 78c5,3 8,8 5,10 -2,3 -9,2 -14,-1 -5,-3 -8,-7 -5,-10 3,-2 9,-2 14,1z"/>
    </g>
   </g>
   <path class="fil3 str1" d="M144 1c0,27 -5,17 0,38"/>
   <path class="fil10" d="M460 127c-4,-3 -8,-6 -13,-7 -4,-2 -9,-3 -14,-3 -5,0 -9,1 -13,2 -4,2 -8,4 -11,7 -3,3 -5,7 -7,11 -1,4 -2,8 -2,13 0,7 1,13 4,18 4,5 8,9 13,12 6,3 12,4 18,4 3,0 6,0 9,-1 4,-1 6,-2 7,-3l0 -17 -11 0 -10 -24 49 0 0 59c-2,1 -5,3 -9,5 -4,1 -8,2 -12,3 -4,1 -8,2 -13,3 -5,0 -9,1 -13,1 -11,0 -21,-3 -30,-8 -9,-6 -17,-13 -22,-22 -5,-9 -8,-19 -8,-30 0,-10 3,-20 8,-30 5,-9 13,-16 22,-21 9,-5 19,-8 30,-8 5,0 11,1 16,2 5,1 10,3 15,5 5,3 9,6 13,9l-16 20zm23 -34l26 0 0 113 -26 1 0 -114zm77 116c-8,0 -16,-2 -23,-6 -8,-3 -13,-9 -18,-15 -4,-7 -6,-15 -6,-23 0,-6 1,-12 4,-17 2,-6 6,-10 10,-14 4,-4 9,-7 15,-10 6,-2 12,-3 18,-3 6,0 12,1 18,3 5,2 10,6 15,10 4,4 8,8 10,14 3,5 4,11 4,17 0,6 -1,12 -4,18 -2,5 -6,10 -10,14 -5,4 -10,7 -15,9 -6,2 -12,3 -18,3zm-22 -44c0,6 3,11 7,15 4,4 9,6 15,6 6,0 11,-2 15,-6 4,-4 6,-9 6,-15 0,-4 -1,-7 -3,-10 -2,-3 -4,-6 -8,-8 -3,-2 -6,-3 -10,-3 -4,0 -7,1 -11,3 -3,2 -6,5 -8,8 -2,3 -3,6 -3,10zm98 0c0,6 2,11 7,15 4,4 9,6 15,6 5,0 10,-2 15,-6 4,-4 6,-9 6,-15 0,-4 -1,-7 -3,-10 -2,-3 -4,-6 -8,-8 -3,-1 -7,-2 -10,-2 -4,0 -8,1 -11,2 -3,2 -6,5 -8,8 -2,3 -3,6 -3,10zm-25 -72l25 -1 0 34 2 -1 2 0c6,-2 12,-4 18,-4 6,0 12,2 17,4 6,2 11,5 16,9 4,4 7,8 10,14 2,5 4,11 4,17 0,7 -2,12 -4,18 -3,5 -6,10 -10,14 -5,4 -10,7 -16,9 -5,2 -11,3 -17,3 -9,0 -16,-2 -23,-6 -8,-3 -13,-9 -18,-15 -4,-7 -6,-14 -6,-22l0 -73zm126 62c2,-3 5,-6 8,-8 3,-2 7,-2 11,-2 3,0 7,0 10,2 3,2 6,5 8,8 2,3 3,6 3,10 0,6 -2,11 -6,15 -5,4 -10,6 -15,6 -6,0 -11,-2 -15,-6 -5,-4 -7,-9 -7,-15 0,-4 1,-7 3,-10zm40 52l25 0 0 -42c0,-6 -1,-12 -3,-17 -3,-6 -6,-10 -11,-14 -4,-4 -9,-7 -15,-9 -6,-3 -11,-4 -17,-4 -7,0 -13,1 -18,4 -6,2 -11,5 -15,9 -5,4 -8,8 -11,14 -2,5 -3,11 -3,17 0,8 2,16 6,23 4,6 10,11 17,15 8,4 15,6 24,6 6,0 12,-1 17,-3 1,-1 2,-1 4,-2l0 3zm29 -114l26 0 0 113 -26 1 0 -114z"/>
   <path class="fil11" d="M869 93l28 0 0 114 -28 -1 0 -113zm57 0l-25 0 55 116 55 -116 -25 0 -30 59 -30 -59zm89 113l0 -113 69 0 0 24 -41 0 0 20 22 0 7 24 -29 0 0 45 -28 0z"/>
   <path class="fil10" d="M398 40c0,0 1,-1 1,-1l10 0c9,0 13,4 13,11 0,4 -1,6 -3,8 -2,2 -6,3 -10,3l-3 0c0,0 0,0 0,0l0 7c0,0 -1,1 -1,1l-6 0c0,0 -1,-1 -1,-1l0 -28zm11 14c4,0 6,-1 6,-4 0,-1 -1,-2 -2,-3 -1,-1 -2,-1 -4,-1l-3 0c0,0 0,0 0,1l0 6c0,1 0,1 0,1l3 0zm18 -14c0,0 0,-1 1,-1l10 0c9,0 13,4 13,10 0,4 -2,7 -5,9l6 9c0,1 0,1 0,1 0,1 0,1 -1,1l-5 0c-1,0 -2,-1 -3,-1l-4 -8c-1,-1 -1,-1 -1,-1l-3 0c-1,0 -1,0 -1,0 0,0 0,1 0,1l0 8c0,0 0,1 -1,1l-5 0c-1,0 -1,-1 -1,-1l0 -28zm11 13c3,0 5,-1 5,-4 0,-1 0,-2 -1,-2 -1,-1 -2,-1 -4,-1l-3 0c-1,0 -1,0 -1,1l0 5c0,1 0,1 1,1l3 0zm28 -12c0,-1 1,-2 1,-2 0,0 1,0 1,0 1,0 2,0 2,2l13 26c1,1 1,1 1,1 0,1 -1,1 -1,1l-6 0c0,0 -1,0 -1,0 0,-1 0,-1 0,-1l-2 -4c0,0 0,0 -1,0l-10 0c-1,0 -1,0 -1,0l-2 4c0,0 0,0 0,1 -1,0 -1,0 -1,0l-6 0c0,0 -1,0 -1,-1 0,0 0,0 1,-1l13 -26zm4 17c1,0 1,0 1,-1 0,0 0,0 0,0l-3 -6 -3 6c0,0 0,0 0,0 0,1 0,1 1,1l4 0zm14 -17c-1,-1 -1,-1 -1,-1 0,-1 1,-1 1,-1l6 0c0,0 1,0 1,1 0,0 0,0 1,1l7 15 8 -15c0,-1 0,-1 0,-1 1,-1 1,-1 2,-1l5 0c0,0 1,0 1,1 0,0 0,0 -1,1l-13 26c0,1 -1,2 -1,2 0,0 -1,1 -1,1 0,0 -1,-1 -1,-1 0,0 0,-1 -1,-2l-13 -26zm34 -1c0,0 0,-1 1,-1l5 0c1,0 1,1 1,1l0 28c0,0 0,1 -1,1l-5 0c-1,0 -1,-1 -1,-1l0 -28z"/>
   <path class="fil10" d="M403 231l14 0c2,0 3,0 4,0 2,0 3,1 4,1 2,1 4,3 5,5 1,2 2,5 2,8 0,1 0,3 -1,4 0,2 -1,3 -1,4 -1,1 -2,2 -3,3 -1,1 -2,1 -3,2 -1,0 -2,0 -3,1 -1,0 -3,0 -4,0l-10 0 0 17 -4 0 0 -45zm14 24c1,0 2,0 3,0 1,0 1,-1 2,-1 1,0 2,-1 2,-1 1,-1 1,-1 2,-2 0,-1 1,-2 1,-3 0,-1 0,-2 0,-3 0,-3 0,-4 -1,-6 -1,-1 -2,-2 -3,-3 -1,-1 -3,-1 -6,-1l-10 0 0 20 10 0zm42 21c-4,0 -7,0 -10,-1 -2,-2 -5,-3 -7,-5 -2,-2 -4,-5 -5,-8 -1,-2 -2,-5 -2,-9 0,-3 1,-6 2,-9 1,-3 3,-5 5,-7 2,-2 5,-4 8,-5 2,-1 5,-2 9,-2 3,0 6,1 9,2 3,1 5,3 7,5 2,2 4,4 5,7 1,3 2,6 2,9 0,4 -1,7 -2,9 -1,3 -3,6 -5,8 -2,2 -4,4 -7,5 -3,1 -6,1 -9,1zm0 -4c2,0 5,0 7,-1 2,-1 4,-2 6,-4 2,-2 3,-4 4,-6 1,-2 1,-5 1,-8 0,-2 0,-5 -1,-7 -1,-3 -2,-5 -4,-6 -2,-2 -4,-3 -6,-4 -2,-1 -5,-2 -7,-2 -3,0 -6,1 -8,2 -2,1 -4,2 -6,4 -1,2 -3,4 -4,6 -1,2 -1,5 -1,7 0,3 0,5 1,8 1,2 3,4 4,6 2,1 4,3 6,4 2,1 5,1 8,1zm28 -41l4 0 0 41 21 0 0 4 -25 0 0 -45zm41 25l-16 -25 6 0 13 20 12 -20 6 0 -16 25 0 20 -5 0 0 -20zm45 20c-3,0 -6,0 -9,-1 -3,-2 -5,-3 -7,-5 -2,-2 -4,-5 -5,-8 -1,-3 -2,-5 -2,-9 0,-3 1,-6 2,-9 1,-2 3,-5 5,-7 2,-2 4,-4 7,-5 3,-1 6,-2 9,-2 4,0 7,1 9,2 3,1 6,3 8,5l-3 3c-2,-2 -4,-3 -6,-4 -2,-1 -5,-2 -8,-2 -2,0 -5,1 -7,2 -2,1 -4,2 -6,4 -2,2 -3,4 -4,6 -1,2 -1,5 -1,7 0,3 0,5 1,8 1,2 2,4 4,6 2,2 4,3 6,4 2,1 5,1 7,1 3,0 6,0 8,-1 2,-1 4,-2 6,-4l3 3c-3,2 -5,4 -8,5 -2,1 -5,1 -9,1zm21 -45l5 0 0 41 20 0 0 4 -25 0 0 -45zm29 0l4 0 0 45 -4 0 0 -45zm11 -2l33 36 0 -34 4 0 0 46 -33 -36 0 35 -4 0 0 -47zm44 2l4 0 0 45 -4 0 0 -45zm32 45c-3,0 -6,0 -9,-1 -3,-2 -6,-3 -8,-5 -2,-2 -3,-5 -4,-8 -2,-3 -2,-5 -2,-9 0,-3 0,-6 2,-9 1,-2 2,-5 5,-7 2,-2 4,-4 7,-5 3,-1 6,-2 9,-2 3,0 6,1 9,2 3,1 5,3 7,5l-3 3c-1,-2 -3,-3 -5,-4 -3,-1 -5,-2 -8,-2 -3,0 -5,1 -7,2 -3,1 -5,2 -6,4 -2,2 -3,4 -4,6 -1,2 -2,5 -2,7 0,3 1,5 2,8 1,2 2,4 4,6 1,2 3,3 6,4 2,1 4,1 7,1 3,0 5,0 8,-1 2,-1 4,-2 5,-4l3 3c-2,2 -4,4 -7,5 -3,1 -6,1 -9,1z"/>
   <line class="fil3 str3" x1="338" y1="33" x2="338" y2= "260" />
  </g>
 </g>
</svg>
